<?xml version="1.0" encoding="utf-8"?>
<!-- Generator: Adobe Illustrator 28.2.0, SVG Export Plug-In . SVG Version: 6.00 Build 0)  -->
<svg version="1.1" id="Layer_1" xmlns="http://www.w3.org/2000/svg" xmlns:xlink="http://www.w3.org/1999/xlink" x="0px" y="0px"
	 viewBox="0 0 1366 768" style="enable-background:new 0 0 1366 768;" xml:space="preserve">
<style type="text/css">
	.st0{fill:#FFFFFF;stroke:#000000;stroke-miterlimit:10;}
</style>
<path class="st0" d="M750.05,366.21c6.82-7.53,14.07-13.64,23.65-15.98c15.45-3.78,30.16-2.42,42.43,8.85
	c8.33,7.66,12.04,17.94,12.46,28.9c0.74,19.72,0.58,39.48,0.77,59.22c0.04,3.6,0.01,7.21,0.01,11.74c1.06-1.45,1.67-2.14,2.12-2.92
	c12.07-20.86,24.08-41.76,36.26-62.56c1.49-2.55,1.32-4.34-0.1-6.78c-14.26-24.65-28.41-49.37-42.58-74.07
	c-0.72-1.25-1.35-2.55-2.37-4.48c8.18,0,15.68,0.54,23.06-0.16c6.77-0.64,10.04,1.9,12.89,7.91c7.92,16.69,16.6,33.03,24.99,49.5
	c0.61,1.19,1.3,2.34,2.22,3.99c0.9-1.63,1.57-2.77,2.17-3.94c9.24-17.86,18.52-35.71,27.64-53.63c1.35-2.65,2.83-3.87,5.97-3.77
	c7.86,0.25,15.73,0.07,23.6,0.09c1.22,0,2.43,0.1,4.33,0.18c-0.92,1.75-1.55,3.03-2.27,4.27c-14.26,24.8-28.49,49.62-42.85,74.37
	c-1.38,2.37-1.36,4.06,0.01,6.42c14.66,25.15,29.21,50.36,43.78,75.56c0.74,1.29,1.46,2.59,2.53,4.48c-1.6,0.13-2.75,0.29-3.89,0.3
	c-8.12,0.02-16.24-0.09-24.35,0.07c-2.61,0.05-4.01-0.82-5.2-3.14c-9.49-18.43-19.11-36.8-28.7-55.18c-0.62-1.19-1.31-2.36-2.3-4.14
	c-0.95,1.68-1.68,2.89-2.33,4.15c-9.6,18.37-19.16,36.77-28.87,55.08c-0.72,1.36-2.58,3.01-3.93,3.03
	c-15.72,0.2-31.45,0.12-47.18,0.1c-0.48,0-0.95-0.17-1.94-0.35c0-1.47,0-2.93,0-4.38c0-23,0.02-46-0.02-69
	c-0.01-6.01-0.24-11.95-3.16-17.51c-2.3-4.39-5.44-7.64-10.04-9.6c-11.61-4.96-28.08-1.43-36.08,8.19c-1.51,1.82-2.58,4.62-2.6,6.98
	c-0.18,27-0.12,54-0.12,81c0,1.37,0,2.73,0,4.4c-9.02,0-17.8,0-26.96,0c-0.06-1.4-0.18-2.72-0.18-4.05
	c-0.01-55.25,0.02-110.5-0.12-165.74c-0.01-3.87,1.06-4.91,4.81-4.77c7.32,0.28,14.66,0.08,22.42,0.08
	C750.05,321.65,750.05,343.93,750.05,366.21z"/>
<path class="st0" d="M610.94,392.36c3.54-7.27,6.41-15.24,10.97-22.09c8.33-12.52,20.72-19.21,35.58-21.15
	c16.9-2.21,32.71,0.4,46.08,11.78c10.08,8.58,14.8,19.82,14.92,33.39c-8.52,0-16.92,0-25.56,0c-0.3-1.94-0.45-3.92-0.93-5.82
	c-3.22-12.73-16.84-20.38-31.02-17.62c-8.62,1.68-14.93,6.39-18.39,14.37c-7.3,16.84-7.23,34.25-1.29,51.21
	c5.42,15.48,20.41,21.52,36.04,15.94c8.17-2.92,13.99-8.02,15.32-17.17c0.11-0.75,1.38-1.88,2.13-1.89
	c7.72-0.14,15.44-0.09,23.5-0.09c0.4,6.64-1.21,12.5-4.49,17.69c-10.97,17.32-27.31,25.06-47.35,25.12
	c-15.89,0.05-29.92-5.1-40.85-17.17c-8.7-9.6-13.07-21.18-14.62-33.86c-0.39-3.2-1.19-4.39-4.68-4.37
	c-24.84,0.17-49.69,0.09-74.54,0.1c-1.33,0-2.67,0-4.38,0c1.94,14.43,8.37,24.96,21.54,30.7c14.54,6.34,30.86,2.1,47.08-12.38
	c4.73,4.45,9.51,8.93,14.42,13.54c-5.89,8.68-13.65,14.74-23.07,18.17c-25.02,9.11-48.7,7.28-69.34-10.95
	c-12.17-10.74-17.29-25.02-18.01-41.07c-0.96-21.26,3.78-40.52,19.7-55.72c21.17-20.21,58.11-19.61,77.66,1.17
	c6.68,7.1,10.52,15.71,12.8,25.09C610.45,390.57,610.8,391.84,610.94,392.36z M585.25,400.38c0.85-16-10.37-28.91-25.11-29.91
	c-20.14-1.37-30.43,16.22-31.54,29.91C547.41,400.38,566.22,400.38,585.25,400.38z"/>
<path class="st0" d="M546.69,330.7c-17.09,0-33.63,0-50.62,0c0,47.73,0,95.02,0,142.66c-9.22,0-18,0-27.22,0
	c-0.07-1.51-0.2-3.08-0.2-4.65c-0.04-44.23-0.06-88.47-0.09-132.7c0-5.26-0.01-5.26-5.3-5.26c-13.73,0-27.46-0.07-41.19,0.08
	c-3.05,0.03-4.21-0.82-4.06-3.99c0.23-4.86,0.24-9.75-0.01-14.61c-0.17-3.25,0.79-4.36,4.17-4.3c11.23,0.2,22.47,0.09,33.7,0.09
	c28.84,0.02,57.67,0.09,86.51-0.03c3.44-0.01,4.56,0.94,4.4,4.41C546.5,318.34,546.69,324.31,546.69,330.7z"/>
</svg>
